<svg width="52" height="52" viewBox="0 0 52 52" fill="none" xmlns="http://www.w3.org/2000/svg">
<path d="M24.6191 6.35781C21.8059 6.825 19.216 8.18594 17.1137 10.2984C15.8543 11.568 14.991 12.7867 14.3105 14.2594L13.8637 15.2344H13.1324C10.441 15.2344 7.45508 16.9102 5.86055 19.3273C5.2918 20.1906 4.8043 21.2977 4.55039 22.3133C4.26602 23.4609 4.2457 25.7766 4.49961 26.8328C5.40352 30.5094 8.13555 33.1906 11.7309 33.932C12.4316 34.0742 13.0918 34.125 14.6051 34.125H16.5551V38.1063C16.5551 40.4727 16.5957 42.25 16.6566 42.4633C17.0223 43.7836 19.1652 44.8398 22.5676 45.368C24.1723 45.6117 27.8285 45.6117 29.4535 45.368C32.0434 44.9719 34.034 44.2102 34.8262 43.3063C35.0496 43.0422 35.2832 42.6664 35.3441 42.4633C35.4051 42.25 35.4457 40.4727 35.4457 38.1063V34.125H38.1676C41.0723 34.125 41.702 34.0539 42.8598 33.5867C43.8652 33.1805 44.5762 32.7031 45.409 31.8906C48.4152 28.925 48.466 24.1211 45.5004 21.1148C44.4035 19.9875 43.0426 19.2461 41.6004 18.9719L40.9605 18.85L40.798 17.875C40.4629 15.8234 39.4981 13.518 38.259 11.8523C36.1668 8.99844 32.8254 6.93672 29.3621 6.35781C28.184 6.15469 25.777 6.15469 24.6191 6.35781ZM30.0832 8.06406C33.8918 9.07969 37.0301 11.7914 38.5027 15.3156C38.909 16.2906 39.2949 17.8039 39.366 18.7281C39.4371 19.6219 39.5793 20.0891 39.7926 20.2008C39.884 20.2414 40.2699 20.3125 40.6356 20.3531C43.1035 20.5969 45.2363 22.3844 45.9676 24.832C46.2113 25.6445 46.2113 27.2492 45.9676 28.082C45.3887 30.0422 43.9566 31.5758 42.0473 32.2766C41.2957 32.5508 41.2551 32.5508 38.3707 32.5813L35.4457 32.6117V28.5695C35.4457 24.5375 35.4457 24.5273 35.202 24.0094C34.9176 23.3898 34.4199 22.9633 33.4652 22.4961C29.8395 20.7188 22.2121 20.7188 18.5355 22.4961C17.5809 22.9531 17.0832 23.3898 16.7988 24.0094C16.5551 24.5273 16.5551 24.5375 16.5551 28.5594V32.6016H14.6762C13.3457 32.6016 12.5535 32.5508 12.0051 32.4391C9.69961 31.9617 7.70899 30.4383 6.64258 28.3156C6.05352 27.1578 5.86055 26.2641 5.86055 24.6797C5.85039 23.5422 5.89102 23.1664 6.07383 22.4961C6.69336 20.3227 8.04414 18.6266 9.98399 17.6109C11.1113 17.0219 11.7715 16.8492 13.3355 16.768C14.991 16.6766 14.9504 16.707 15.4684 15.4375C16.1488 13.7719 16.9613 12.5633 18.2816 11.2633C19.6527 9.9125 21.2473 8.92735 23.0449 8.32812C24.5379 7.83047 25.3402 7.71875 27.3207 7.75938C28.8441 7.78984 29.2402 7.83047 30.0832 8.06406ZM28.9559 22.8516C30.3676 23.0344 31.952 23.4508 32.8152 23.8875C33.7293 24.3445 34.0035 24.6391 33.8207 24.9844C33.516 25.5633 31.7996 26.2438 29.6668 26.6297C27.9504 26.9445 24.0504 26.9445 22.334 26.6297C20.2012 26.2438 18.4848 25.5633 18.1801 24.9844C18.0074 24.6594 18.2512 24.3648 19.0941 23.9281C20.2316 23.3289 21.9988 22.9328 24.5785 22.7094C25.2793 22.6484 27.991 22.7398 28.9559 22.8516ZM19.9066 27.6656C21.7145 28.2445 22.9332 28.3867 26.0004 28.3867C28.4277 28.3867 28.9559 28.3563 30.0121 28.1633C31.373 27.9195 32.7137 27.5234 33.4449 27.1578L33.9223 26.9141V28.7219C33.9223 30.3672 33.902 30.5703 33.7293 30.7938C33.252 31.393 31.5762 32.0125 29.5043 32.3578C27.9199 32.6219 24.0809 32.6219 22.4965 32.3578C20.4246 32.0125 18.7488 31.393 18.2715 30.7938C18.0988 30.5703 18.0785 30.3672 18.0785 28.7219V26.9141L18.566 27.1578C18.8301 27.2898 19.4293 27.5234 19.9066 27.6656ZM18.9926 33.0586C20.7496 33.7898 23.0957 34.1555 26.0004 34.1555C29.3316 34.1555 31.2512 33.8102 33.8004 32.7336C33.8918 32.693 33.9223 33.0789 33.9223 34.4602C33.9223 36.2273 33.9223 36.2477 33.6582 36.5523C33.3129 36.9586 32.348 37.4156 31.1699 37.7203C29.3824 38.1875 28.834 38.2383 25.8988 38.2383C23.248 38.2281 23.0348 38.218 21.8059 37.9539C20.191 37.6086 19.0535 37.182 18.5051 36.7047L18.0785 36.3391V34.5109C18.0785 33.0891 18.109 32.693 18.2105 32.7336C18.2715 32.7641 18.627 32.9164 18.9926 33.0586ZM18.8199 38.6953C20.5465 39.4773 22.8824 39.8531 26.0004 39.8531C29.1184 39.8531 31.4543 39.4773 33.1809 38.6953C33.5465 38.5227 33.8613 38.3906 33.8816 38.3906C33.902 38.3906 33.9223 39.2234 33.9223 40.2289V42.0773L33.5668 42.4125C32.9574 42.9914 31.0684 43.6008 28.9965 43.8953C27.8184 44.0578 24.1824 44.0578 23.0043 43.8953C20.9324 43.6008 19.0434 42.9914 18.434 42.4125L18.0785 42.0773V40.2289C18.0785 39.2234 18.0988 38.3906 18.1191 38.3906C18.1395 38.3906 18.4543 38.5227 18.8199 38.6953Z" fill="#0176D3"/>
<path d="M27.0867 11.6492C27.0461 11.6797 27.0156 12.025 27.0156 12.4008V13.0914L27.5031 13.1523C29.3617 13.3859 30.4891 13.9141 31.6977 15.1227C32.368 15.793 32.6523 16.1789 32.9367 16.7578C33.3734 17.6516 33.6172 18.5352 33.6172 19.2156V19.7031H34.3789H35.1406V19.1852C35.1406 18.0375 34.5109 16.2398 33.7086 15.0617C32.8961 13.8836 31.332 12.6648 29.9609 12.157C29.0266 11.8016 27.2391 11.4867 27.0867 11.6492Z" fill="#0176D3"/>
</svg>
