<svg width="52" height="52" viewBox="0 0 52 52" fill="none" xmlns="http://www.w3.org/2000/svg">
<g clip-path="url(#clip0_126_875)">
<path d="M11.0195 0.558666C10.8875 0.589134 0.304688 11.1719 0.304688 11.2735C0.304688 11.3141 0.304688 19.1751 0.304688 28.7372C0.304688 44.4083 0.314844 46.1551 0.385937 46.4344C0.660156 47.5059 1.55391 48.354 2.65078 48.5926L3.07227 48.6841L3.10781 48.9583C3.18398 49.5626 3.53437 50.2126 4.02695 50.6645C4.40273 51.0048 4.76328 51.2079 5.23047 51.3348L5.61133 51.4415H21.252C38.5277 51.4415 37.1211 51.4669 37.832 51.1216C38.2941 50.893 38.8324 50.3598 39.0711 49.8825C39.4012 49.2223 39.4062 49.1817 39.4062 46.1755V43.479L40.0309 43.1743C40.6758 42.8544 41.1887 42.5344 41.6051 42.1891L41.8539 41.9809L42.4531 42.5801L43.0523 43.1743L42.9406 43.413C42.8543 43.6059 42.834 43.743 42.834 44.1798C42.834 45.0684 42.6918 44.8856 45.825 48.0239C48.7551 50.9591 48.7094 50.9235 49.3848 51.0251C50.2684 51.1673 51.152 50.6899 51.5328 49.8774C51.6547 49.6184 51.6699 49.527 51.6699 49.0294C51.6699 48.1102 51.8223 48.3032 48.7043 45.1852C46.1957 42.6716 46.0129 42.4989 45.6777 42.3415C45.3477 42.1891 45.2816 42.1739 44.8145 42.1739C44.393 42.1739 44.266 42.1942 44.0527 42.2907L43.8039 42.4075L43.2301 41.8337C42.9152 41.5188 42.6562 41.2395 42.6562 41.2192C42.6562 41.1938 42.7426 41.0669 42.8543 40.9348C43.1691 40.5591 43.6109 39.8481 43.8496 39.3403C44.7332 37.4462 44.8551 35.3387 44.2 33.3634C43.6363 31.6723 42.4937 30.1794 41.0059 29.1891C40.6605 28.9606 39.7516 28.4833 39.523 28.4173L39.4062 28.3817V17.1489C39.4062 4.74812 39.4266 5.62664 39.0812 4.93093C38.6699 4.12351 37.9387 3.58015 36.984 3.38718L36.6387 3.31609L36.6031 3.05711C36.4355 1.90437 35.5418 0.924294 34.4043 0.634838C34.1402 0.568825 32.6625 0.558666 22.6129 0.548512C16.2957 0.538353 11.0805 0.543434 11.0195 0.558666ZM34.4398 1.78757C34.841 1.97546 35.1609 2.28523 35.359 2.6864L35.5215 3.02156L35.5367 15.463L35.5469 27.9094L35.0543 28.0009C32.6777 28.4426 30.5805 30.0067 29.4277 32.1903L29.2195 32.5762L22.9277 32.6016C19.4645 32.6169 16.5953 32.6473 16.5496 32.6677C16.4277 32.7286 16.3008 32.9825 16.3008 33.1602C16.3008 33.277 16.3516 33.3735 16.4734 33.4954L16.6461 33.668H22.7195C26.0609 33.668 28.793 33.6884 28.793 33.7087C28.793 33.729 28.7473 33.9524 28.6914 34.2012C28.4273 35.4301 28.468 36.7708 28.8184 38.152L28.8539 38.2891H22.75H16.6461L16.4734 38.4618C16.3414 38.5938 16.3008 38.6751 16.3008 38.8223C16.3008 38.9696 16.3414 39.0509 16.4734 39.1829L16.6461 39.3555H22.9633H29.2754L29.4887 39.7516C30.5754 41.7778 32.5508 43.2657 34.8207 43.7684C35.0797 43.8294 35.3488 43.8751 35.4199 43.8751H35.552L35.5367 45.0329L35.5215 46.1907L35.359 46.5208C35.1609 46.9219 34.841 47.2317 34.4398 47.4196L34.1504 47.5567L18.5859 47.5719C1.31523 47.5821 2.75234 47.6126 2.19883 47.2469C1.85859 47.0286 1.60469 46.6782 1.47266 46.2669C1.37109 45.9469 1.37109 45.82 1.37109 28.9657V11.9895L5.32187 11.9743C8.99336 11.9591 9.28789 11.9489 9.54688 11.8626C10.6031 11.5122 11.3141 10.786 11.6137 9.76531C11.6898 9.50124 11.7051 9.05945 11.7203 5.54539L11.7355 1.62507L22.943 1.63523L34.1504 1.65046L34.4398 1.78757ZM10.6031 6.77937L10.5879 9.52156L10.4305 9.82624C10.2426 10.1868 9.84141 10.5778 9.50625 10.7302C9.26758 10.8419 9.24219 10.8419 5.71289 10.8571L2.1582 10.8673L6.37305 6.65242L10.5879 2.43757L10.6031 3.23484C10.6082 3.67664 10.6082 5.27117 10.6031 6.77937ZM37.1973 4.57038C37.5223 4.71257 37.8168 4.95632 38.0047 5.2407C38.3652 5.78406 38.3398 4.93093 38.3398 17.0727C38.3398 23.1005 38.3246 28.0313 38.3043 28.0313C38.2789 28.0313 38.0605 27.9958 37.8066 27.9552C37.5578 27.9145 37.1973 27.879 37.0094 27.879H36.6641V16.1485V4.41804L36.8316 4.45359C36.918 4.46882 37.0855 4.52468 37.1973 4.57038ZM37.5984 29.0216C40.4625 29.4481 42.7629 31.6165 43.3926 34.4805C43.5195 35.0594 43.55 36.329 43.4535 36.9434C42.9762 39.9497 40.691 42.2805 37.7355 42.7782C37.1211 42.8798 36.0039 42.8848 35.4148 42.7833C32.3934 42.2653 30.093 39.8837 29.6512 36.8216C29.5699 36.2376 29.6207 34.9985 29.7527 34.4247C30.3266 31.9212 32.1902 29.9305 34.6277 29.2196C35.5367 28.9555 36.6437 28.8794 37.5984 29.0216ZM45.1191 43.2708C45.2918 43.3165 45.698 43.7024 47.8766 45.8708C49.5625 47.5567 50.4613 48.4911 50.5273 48.6282C50.6898 48.9634 50.634 49.4102 50.3852 49.6794C50.1312 49.9587 49.6133 50.0501 49.268 49.8723C48.9887 49.7251 44.0527 44.7587 43.9512 44.5251C43.7988 44.1442 43.8801 43.7735 44.1848 43.4891C44.4641 43.2301 44.7383 43.1692 45.1191 43.2708ZM38.3398 46.2262C38.3398 48.2778 38.3246 48.7298 38.2637 48.9786C38.1164 49.5372 37.7355 49.9841 37.1922 50.2329L36.9434 50.3497H21.252H5.56055L5.28125 50.2176C4.72773 49.9536 4.2707 49.3848 4.18437 48.8618L4.14883 48.6485L19.2512 48.6384L34.3535 48.6231L34.6988 48.486C35.6129 48.1153 36.2832 47.3891 36.5422 46.4649C36.598 46.2719 36.6285 45.8505 36.6488 45.0837L36.6793 43.9817L37.0652 43.9512C37.2785 43.9309 37.6238 43.8903 37.832 43.8548C38.0402 43.8141 38.2434 43.7837 38.2789 43.7786C38.3246 43.7735 38.3398 44.2966 38.3398 46.2262Z" fill="#0176D3"/>
<path d="M19.4649 5.35742C17.3575 6.06836 15.7629 7.68828 15.0876 9.81602C14.9301 10.3086 14.8286 10.918 14.9047 10.918C14.9251 10.918 16.4231 11.2582 18.236 11.6797C20.0489 12.0961 21.6129 12.4414 21.7145 12.4414C21.9633 12.4414 22.1919 12.2129 22.1919 11.9641C22.1919 11.8219 20.9579 6.52539 20.7141 5.61641C20.6837 5.50977 20.6024 5.36758 20.5313 5.30156C20.3485 5.12891 20.0946 5.14414 19.4649 5.35742ZM19.8051 6.42383C19.8051 6.43906 20.059 7.50547 20.3637 8.79531C20.6735 10.0852 20.9122 11.1465 20.902 11.1566C20.8919 11.1668 19.8153 10.9281 18.5153 10.6285L16.1438 10.0852L16.1743 9.9582C16.2403 9.69922 16.5602 9.06445 16.8446 8.63789C17.1899 8.11484 17.8704 7.4293 18.3731 7.09414C18.9114 6.73359 19.8051 6.31719 19.8051 6.42383Z" fill="#0176D3"/>
<path d="M23.359 6.93686C22.9071 6.99272 22.3079 7.12983 22.2012 7.19584C22.1352 7.23647 22.0489 7.34819 22.0083 7.44467C21.9422 7.60717 21.9676 7.75444 22.6532 10.5931C23.0442 12.2283 23.354 13.579 23.3387 13.5943C23.3286 13.6095 22.0032 13.315 20.4036 12.9443C18.804 12.5736 17.4176 12.2689 17.3211 12.274C17.2043 12.279 17.0977 12.3298 17.0012 12.4314C16.793 12.6345 16.6915 13.2744 16.6915 14.3458C16.6864 15.8794 17.0723 17.1845 17.8899 18.4236C19.0122 20.1248 20.6575 21.2318 22.6989 21.6685C23.3793 21.8107 24.9333 21.8005 25.6391 21.6431C27.1575 21.3029 28.2899 20.6783 29.3766 19.5814C30.245 18.708 30.829 17.7685 31.1946 16.6564C31.7786 14.879 31.6211 12.7107 30.7883 11.0451C29.7575 8.9935 27.8278 7.51577 25.5782 7.05366C25.0754 6.95209 23.7907 6.88608 23.359 6.93686ZM25.4106 8.13022C27.8583 8.6228 29.8032 10.5677 30.3465 13.0611C30.4735 13.6298 30.4938 14.7521 30.3973 15.3615C30.1891 16.6259 29.6153 17.7837 28.7317 18.713C28.1833 19.2919 27.6297 19.6982 26.8883 20.0638C25.1364 20.922 23.1356 20.9271 21.3633 20.0841C20.1547 19.5103 19.0274 18.4033 18.4129 17.1744C18.1743 16.697 17.9458 15.9962 17.8493 15.4478C17.7731 15.006 17.7426 13.6298 17.8137 13.5283C17.8391 13.4876 18.7786 13.6857 20.8961 14.1732C22.5719 14.5642 24.0293 14.879 24.136 14.879C24.4102 14.879 24.6286 14.6607 24.6286 14.3865C24.6286 14.2748 24.2985 12.8173 23.8973 11.1415C23.4961 9.47084 23.1762 8.08959 23.1915 8.07436C23.2422 8.0185 23.8668 7.98295 24.3747 8.00834C24.6692 8.0185 25.1364 8.07436 25.4106 8.13022Z" fill="#0176D3"/>
<path d="M5.48438 27.2238V29.2602L5.65703 29.4328L5.82969 29.6055H7.66797C9.57734 29.6055 9.63828 29.6004 9.81094 29.382C9.89219 29.2855 9.90234 29.1027 9.90234 27.4371C9.90234 26.1168 9.88711 25.5633 9.84141 25.4668C9.71953 25.1926 9.66875 25.1875 7.49023 25.1875H5.48438V27.2238ZM8.83594 27.3965V28.5391H7.69336H6.55078V27.3965V26.2539H7.69336H8.83594V27.3965Z" fill="#0176D3"/>
<path d="M16.6258 26.9345C16.4176 27.0259 16.3008 27.1986 16.3008 27.422C16.3008 27.6505 16.4176 27.8181 16.6359 27.9095C16.8898 28.0162 30.8445 28.0162 31.1035 27.9095C31.2812 27.8333 31.4336 27.6099 31.4336 27.422C31.4336 27.2341 31.2812 27.0107 31.1035 26.9345C30.8496 26.8279 16.8645 26.833 16.6258 26.9345Z" fill="#0176D3"/>
<path d="M5.48438 32.957V34.9883L5.63164 35.1508L5.77891 35.3184H7.69336H9.60781L9.75508 35.1508L9.90234 34.9883V33.1043V31.2203L9.75508 31.073L9.60781 30.9258H7.54609H5.48438V32.957ZM8.83594 33.1348V34.2773L7.70859 34.2672L6.57617 34.252L6.56094 33.1195L6.55078 31.9922H7.69336H8.83594V33.1348Z" fill="#0176D3"/>
<path d="M5.48438 38.6496V40.6859L5.65703 40.8586L5.82969 41.0312H7.66289C9.65859 41.0312 9.71953 41.0211 9.84141 40.752C9.88711 40.6555 9.90234 40.0969 9.90234 38.7715V36.9281L9.74492 36.7707L9.5875 36.6133H7.53594H5.48438V38.6496ZM8.83594 38.8223V39.9648H7.69336H6.55078V38.8223V37.6797H7.69336H8.83594V38.8223Z" fill="#0176D3"/>
<path d="M35.7761 30.1693C33.0085 30.5705 30.9316 32.8353 30.7894 35.5978C30.703 37.2736 31.3073 38.8376 32.4956 40.0158C33.2218 40.7369 34.1511 41.265 35.1261 41.5189C35.8015 41.6966 36.8425 41.7373 37.523 41.6205C41.0472 41.006 43.18 37.4412 42.0476 34.0642C41.4585 32.3072 40.0366 30.9208 38.2593 30.3673C37.528 30.1439 36.5175 30.0626 35.7761 30.1693ZM37.0558 31.2357C39.0515 31.4591 40.6562 32.8658 41.1437 34.8158C41.296 35.4302 41.296 36.456 41.1437 37.0248C40.6663 38.797 39.3765 40.0615 37.589 40.5083C37.1218 40.6251 36.0046 40.6251 35.5374 40.5083C34.6284 40.2849 33.8819 39.8685 33.2472 39.2337C32.6429 38.6396 32.2265 37.9134 32.0081 37.0806C31.8304 36.4103 31.8202 35.4759 31.9827 34.8158C32.1148 34.2775 32.4144 33.6224 32.7241 33.1958C32.978 32.8353 33.5874 32.2361 33.9226 32.0076C34.6183 31.5353 35.4816 31.2611 36.4769 31.1849C36.5277 31.1849 36.7866 31.2052 37.0558 31.2357Z" fill="#0176D3"/>
</g>
<defs>
<clipPath id="clip0_126_875">
<rect width="52" height="52" fill="white"/>
</clipPath>
</defs>
</svg>
