<svg width="52" height="52" viewBox="0 0 52 52" fill="none" xmlns="http://www.w3.org/2000/svg">
<g clip-path="url(#clip0_126_325)">
<path d="M32.7133 0.964844C31.6773 1.19844 30.4484 1.8586 29.6664 2.62032L28.9961 3.28047L27.7266 3.30078C26.8734 3.32109 26.2945 3.37188 25.9695 3.4836C24.2531 4.0625 22.9125 5.33203 22.3336 6.92656C22.1305 7.475 22.1 7.50547 21.5516 7.7086C19.9266 8.29766 18.718 9.5875 18.1187 11.375C17.8344 12.2078 17.8547 13.8531 18.1594 14.7266C18.4031 15.4273 18.8195 16.1891 19.2562 16.7273L19.5305 17.0625H18.5453C17.6312 17.0625 17.5398 17.0828 17.3164 17.3164C17.1742 17.4484 17.0625 17.6617 17.0625 17.7938C17.0625 17.9258 17.9969 22.1203 19.1344 27.1172C20.9219 34.968 21.2367 36.2172 21.4297 36.3797C21.643 36.5523 22.2727 36.5625 34.125 36.5625C45.9266 36.5625 46.607 36.5523 46.8203 36.3797C47.0133 36.2273 47.3281 34.9273 49.1156 27.0766C50.2531 22.0695 51.1875 17.875 51.1875 17.7633C51.1875 17.6516 51.0758 17.4484 50.9336 17.3164C50.7102 17.0828 50.6187 17.0625 49.7047 17.0625H48.7195L48.9937 16.7273C49.4305 16.1891 49.8469 15.4273 50.0906 14.7266C50.3953 13.8531 50.4156 12.2078 50.1312 11.375C49.532 9.5875 48.3234 8.29766 46.6984 7.7086C46.15 7.50547 46.1195 7.475 45.9164 6.92656C45.0633 4.57031 42.6664 3.07735 40.107 3.29063L39.3352 3.35156L38.6242 2.65078C37.0906 1.14766 34.8461 0.507812 32.7133 0.964844ZM35.2727 2.58984C36.4508 2.89453 37.5172 3.63594 38.1977 4.64141C38.3602 4.875 38.5836 5.09844 38.6953 5.12891C38.807 5.16953 39.2133 5.11875 39.5891 5.02735C41.8234 4.4586 44.0883 5.83985 44.5859 8.07422C44.7281 8.72422 44.9008 8.89688 45.5305 9.04922C47.1961 9.43516 48.3641 10.6945 48.6586 12.4109C48.9836 14.3406 47.7445 16.2805 45.8047 16.8695C45.1648 17.0625 44.8703 17.0625 33.8609 17.0422L22.5875 17.0117L21.8156 16.6359C19.7742 15.6203 18.9516 13.2742 19.9164 11.2227C20.4039 10.1969 21.5414 9.29297 22.6992 9.03906C23.3492 8.89688 23.5219 8.72422 23.6641 8.09453C24.1414 5.86016 26.4164 4.4586 28.6609 5.02735C29.0367 5.11875 29.443 5.16953 29.5547 5.12891C29.6664 5.09844 29.8898 4.875 30.0523 4.64141C31.2305 2.925 33.3531 2.09219 35.2727 2.58984ZM25.2891 18.7078C25.2891 18.7281 25.4008 19.5609 25.543 20.5563C25.6852 21.5617 25.7969 22.4555 25.7969 22.5672C25.7969 22.7398 25.6445 22.75 22.8008 22.75C21.1555 22.75 19.8047 22.7297 19.8047 22.7094C19.8047 22.6484 18.9922 19.0633 18.9312 18.8602C18.8805 18.6977 19.0734 18.6875 22.0797 18.6875C23.8469 18.6875 25.2891 18.6977 25.2891 18.7078ZM33.3125 20.7188V22.75L30.3977 22.7297L27.4727 22.6992L27.2594 21.125C27.1477 20.2617 27.0258 19.3578 26.9953 19.1141L26.9344 18.6875H30.1234H33.3125V20.7188ZM41.2547 19.1141C41.2242 19.3578 41.1023 20.2617 40.9906 21.125L40.7773 22.6992L37.8523 22.7297L34.9375 22.75V20.7188V18.6875H38.1266H41.3156L41.2547 19.1141ZM49.3187 18.8602C49.2578 19.0633 48.4453 22.6484 48.4453 22.7094C48.4453 22.7297 47.0945 22.75 45.4492 22.75C42.5141 22.75 42.4531 22.75 42.4531 22.5469C42.4531 22.3539 42.7984 19.7234 42.9102 19.0125L42.9711 18.6875H46.1703C49.1766 18.6875 49.3695 18.6977 49.3187 18.8602ZM26.1016 24.5172C26.1016 24.5984 26.2336 25.6648 26.4062 26.8836C26.5687 28.1023 26.7109 29.1281 26.7109 29.1789C26.7109 29.2195 25.4922 29.2398 23.9992 29.2297L21.2875 29.1992L20.7492 26.8633C20.4547 25.5734 20.2109 24.4969 20.2109 24.4461C20.2109 24.4055 21.5414 24.375 23.1562 24.375C25.6242 24.375 26.1016 24.3953 26.1016 24.5172ZM33.3125 26.8125V29.25H30.8242C28.7523 29.25 28.3359 29.2297 28.3359 29.1078C28.3359 29.0266 28.2039 27.9602 28.0312 26.7414C27.8687 25.5227 27.7266 24.4969 27.7266 24.4461C27.7266 24.4055 28.9859 24.375 30.5195 24.375H33.3125V26.8125ZM40.5234 24.4461C40.5234 24.4969 40.3812 25.5227 40.2188 26.7414C40.0461 27.9602 39.9141 29.0266 39.9141 29.1078C39.9141 29.2297 39.4977 29.25 37.4258 29.25H34.9375V26.8125V24.375H37.7305C39.2641 24.375 40.5234 24.4055 40.5234 24.4461ZM48.0391 24.4461C48.0391 24.4969 47.7953 25.5734 47.5008 26.8633L46.9625 29.1992L44.2508 29.2297C42.7578 29.2398 41.5391 29.2195 41.5391 29.1789C41.5391 29.1281 41.6812 28.1023 41.8438 26.8836C42.0164 25.6648 42.1484 24.5984 42.1484 24.5172C42.1484 24.3953 42.6258 24.375 45.0937 24.375C46.7187 24.375 48.0391 24.4055 48.0391 24.4461ZM27.1781 32.5C27.2898 33.3633 27.4117 34.2672 27.4422 34.5008L27.5031 34.9375H25.025C23.1156 34.9375 22.5469 34.907 22.5469 34.8055C22.5367 34.7445 22.3438 33.8305 22.1 32.7742L21.6633 30.875L24.3141 30.8953L26.9648 30.9258L27.1781 32.5ZM33.3125 32.9063V34.9375H31.2305C30.0828 34.9375 29.1484 34.9273 29.1484 34.907C29.1484 34.8969 29.0367 34.0641 28.8945 33.0688C28.7523 32.0633 28.6406 31.1695 28.6406 31.0578C28.6406 30.8852 28.7727 30.875 30.9766 30.875H33.3125V32.9063ZM39.6094 31.0578C39.6094 31.1695 39.4977 32.0633 39.3555 33.0688C39.2133 34.0641 39.1016 34.8969 39.1016 34.907C39.1016 34.9273 38.1672 34.9375 37.0195 34.9375H34.9375V32.9063V30.875H37.2734C39.4773 30.875 39.6094 30.8852 39.6094 31.0578ZM46.15 32.7742C45.9062 33.8305 45.7133 34.7445 45.7031 34.8055C45.7031 34.907 45.1344 34.9375 43.2148 34.9375H40.7266L40.7672 34.7039C40.7977 34.582 40.9195 33.7289 41.0312 32.8047C41.1531 31.8805 41.2648 31.068 41.2852 30.9969C41.3156 30.9055 41.9453 30.875 43.9562 30.875H46.5867L46.15 32.7742Z" fill="#0176D3"/>
<path d="M34.125 4.85469V5.66719L34.4805 5.72812C34.9984 5.82969 35.5266 6.3375 35.6688 6.86562L35.7906 7.3125H36.593H37.3953L37.3242 6.825C37.2328 6.19531 36.7148 5.24062 36.268 4.86484C35.7906 4.46875 35.1813 4.19453 34.6023 4.11328L34.125 4.04219V4.85469Z" fill="#0176D3"/>
<path d="M43.875 10.5422V11.3547L44.2305 11.4156C44.7484 11.5172 45.2766 12.025 45.4188 12.5531L45.5406 13H46.343H47.1453L47.0742 12.5125C46.9828 11.8828 46.4648 10.9281 46.018 10.5523C45.5406 10.1562 44.9313 9.88203 44.3523 9.80078L43.875 9.72969V10.5422Z" fill="#0176D3"/>
<path d="M2.43734 13.9447C2.24437 14.0057 1.84828 14.29 1.57406 14.5744C0.852965 15.2854 0.64984 16.0471 0.934215 17.0018C1.09672 17.5604 1.93968 18.4033 2.49828 18.5658C2.79281 18.6471 4.01156 18.6877 6.61156 18.6877C10.6944 18.6877 10.6537 18.6775 10.8569 19.3275C10.9178 19.5002 11.9233 23.7861 13.1014 28.8439C15.5491 39.376 15.5491 39.3455 15.9756 40.1479C16.3514 40.8588 17.2553 41.8135 17.9256 42.2096C18.9209 42.7885 19.6522 42.9814 21.0334 43.0424L22.3131 43.0932L21.978 43.5807C20.0889 46.3939 21.5514 50.1721 24.8522 51.0354C26.4366 51.4518 28.0514 51.015 29.3209 49.8369C31.0678 48.2018 31.3623 45.5814 30.0116 43.5705L29.6662 43.0627H34.1248H38.5834L38.2381 43.5705C36.3389 46.3939 37.7912 50.1721 41.1022 51.0354C42.6866 51.4518 44.3014 51.015 45.5709 49.8369C47.3178 48.2018 47.6123 45.5814 46.2616 43.5705L45.9163 43.0627H47.5006C49.4405 43.0627 49.7553 42.9814 50.4256 42.301C50.9538 41.783 51.1873 41.265 51.1873 40.6252C51.1873 39.6908 50.3748 38.5736 49.5014 38.3096C49.1764 38.2182 45.7131 38.1877 34.7952 38.1877H20.5053L20.2717 37.9541C20.0991 37.7814 19.9569 37.3955 19.7741 36.6033C19.6319 35.9939 18.5248 31.2408 17.3162 26.051C15.8741 19.8455 15.0311 16.4229 14.8686 16.0674C14.503 15.3057 13.7412 14.5744 12.9287 14.1885L12.2381 13.8635L7.51547 13.8432C4.24515 13.833 2.68109 13.8635 2.43734 13.9447ZM11.8928 15.5393C12.4108 15.6814 12.8983 16.0369 13.2233 16.5041C13.4772 16.8596 13.8327 18.2814 15.9959 27.5744C18.7381 39.3252 18.6061 38.8783 19.5405 39.4572L20.0381 39.7619L34.6123 39.8127L49.1764 39.8635L49.3694 40.1072C49.6436 40.4424 49.6131 40.8893 49.3084 41.1939L49.0647 41.4377L34.5108 41.4174L19.9569 41.3869L19.2764 41.0619C18.078 40.4932 17.2756 39.5182 16.9709 38.2385C16.8998 37.9541 15.8436 33.4346 14.6147 28.1838C12.1569 17.6619 12.2584 17.9971 11.3342 17.4182L10.8366 17.1135L6.82484 17.0627L2.82328 17.0119L2.63031 16.7682C2.36625 16.4432 2.38656 15.9861 2.69125 15.6916L2.935 15.4377H7.23109C9.80062 15.4377 11.6795 15.4783 11.8928 15.5393ZM27.5334 43.4791C28.2139 43.8447 28.5287 44.1697 28.9248 44.9314C29.1483 45.3682 29.1889 45.5814 29.1889 46.3127C29.1991 47.1049 29.1686 47.2268 28.8537 47.8158C28.4678 48.5268 28.1428 48.8314 27.3811 49.2377C26.9444 49.4611 26.7311 49.5018 25.9998 49.5018C25.2077 49.5119 25.0858 49.4814 24.4967 49.1666C23.7959 48.7908 23.3897 48.3541 23.0342 47.633C22.8616 47.2674 22.8108 46.9932 22.8108 46.3127C22.8108 45.2971 23.0545 44.6877 23.7147 44.0275C24.7303 43.0119 26.2436 42.7986 27.5334 43.4791ZM43.7834 43.4791C44.4639 43.8447 44.7788 44.1697 45.1748 44.9314C45.3983 45.3682 45.4389 45.5814 45.4389 46.3127C45.4491 47.1049 45.4186 47.2268 45.1038 47.8158C44.7178 48.5268 44.3928 48.8314 43.6311 49.2377C43.1944 49.4611 42.9811 49.5018 42.2498 49.5018C41.4577 49.5119 41.3358 49.4814 40.7467 49.1666C40.0459 48.7908 39.6397 48.3541 39.2842 47.633C39.1116 47.2674 39.0608 46.9932 39.0608 46.3127C39.0608 45.2971 39.3045 44.6877 39.9647 44.0275C40.9803 43.0119 42.4936 42.7986 43.7834 43.4791Z" fill="#0176D3"/>
<path d="M25.3394 44.8298C24.3136 45.2767 24.0698 46.6376 24.8722 47.4399C25.5323 48.1001 26.4667 48.1001 27.1269 47.4399C28.3862 46.1806 26.9745 44.1188 25.3394 44.8298Z" fill="#0176D3"/>
<path d="M41.5894 44.8298C40.5636 45.2767 40.3198 46.6376 41.1222 47.4399C41.7823 48.1001 42.7167 48.1001 43.3769 47.4399C44.6362 46.1806 43.2245 44.1188 41.5894 44.8298Z" fill="#0176D3"/>
</g>
<defs>
<clipPath id="clip0_126_325">
<rect width="52" height="52" fill="white"/>
</clipPath>
</defs>
</svg>
