<svg width="24" height="24" viewBox="0 0 24 24" fill="none" xmlns="http://www.w3.org/2000/svg">
<rect width="24" height="24" fill="#DFDFDF"/>
<g id="Hire" clip-path="url(#clip0_1_26)">
<rect width="1440" height="9804" transform="translate(-1164 -44)" fill="white"/>
<g id="Hero banner" clip-path="url(#clip1_1_26)">
<g id="Hero banner_2">
<rect width="1440" height="800" transform="translate(-1164 -44)" fill="white"/>
</g>
</g>
<g id="Navbar_with Bg">
<rect width="1440" height="112" transform="translate(-1164 -44)" fill="white" fill-opacity="0.2"/>
<g id="Nav">
<g id="Button">
<rect x="-32" y="-12" width="196" height="48" rx="8" fill="#0176D3"/>
<g id="9024698_phone_call_light_icon 1" clip-path="url(#clip2_1_26)">
<path id="Vector" d="M14.9434 3.75C16.2155 4.09141 17.3755 4.76142 18.3068 5.69279C19.2382 6.62416 19.9082 7.78412 20.2496 9.05625" stroke="white" stroke-width="1.5" stroke-linecap="round" stroke-linejoin="round"/>
<path id="Vector_2" d="M14.166 6.64687C14.9311 6.85007 15.6289 7.25192 16.1887 7.81169C16.7485 8.37146 17.1503 9.06926 17.3535 9.83437" stroke="white" stroke-width="1.5" stroke-linecap="round" stroke-linejoin="round"/>
<path id="Vector_3" d="M8.67188 11.7C9.44364 13.2938 10.7324 14.5792 12.3281 15.3469C12.4458 15.4026 12.576 15.4267 12.7059 15.4169C12.8358 15.407 12.9608 15.3635 13.0688 15.2906L15.4125 13.725C15.5161 13.6548 15.6357 13.6119 15.7603 13.6004C15.8849 13.589 16.0104 13.6092 16.125 13.6594L20.5125 15.5438C20.6625 15.6062 20.7877 15.7161 20.869 15.8567C20.9504 15.9973 20.9832 16.1608 20.9625 16.3219C20.8234 17.4073 20.2937 18.4048 19.4723 19.1278C18.6509 19.8508 17.5943 20.2498 16.5 20.25C13.1185 20.25 9.87548 18.9067 7.48439 16.5156C5.0933 14.1245 3.75 10.8815 3.75 7.5C3.75025 6.40575 4.1492 5.34908 4.87221 4.52771C5.59522 3.70634 6.59274 3.17656 7.67813 3.0375C7.83922 3.01681 8.00266 3.04964 8.14326 3.13096C8.28386 3.21227 8.39384 3.33755 8.45625 3.4875L10.3406 7.88438C10.3896 7.9972 10.4101 8.12035 10.4003 8.24296C10.3905 8.36558 10.3507 8.4839 10.2844 8.5875L8.71875 10.9688C8.64905 11.0765 8.60814 11.2002 8.59993 11.3283C8.59172 11.4563 8.6165 11.5843 8.67188 11.7Z" stroke="white" stroke-width="1.5" stroke-linecap="round" stroke-linejoin="round"/>
</g>
</g>
</g>
</g>
</g>
<defs>
<clipPath id="clip0_1_26">
<rect width="1440" height="9804" fill="white" transform="translate(-1164 -44)"/>
</clipPath>
<clipPath id="clip1_1_26">
<rect width="1440" height="800" fill="white" transform="translate(-1164 -44)"/>
</clipPath>
<clipPath id="clip2_1_26">
<rect width="24" height="24" fill="white"/>
</clipPath>
</defs>
</svg>
