<svg width="54" height="54" viewBox="0 0 54 54" fill="none" xmlns="http://www.w3.org/2000/svg">
<path d="M3.60263 46.361H9.38377C9.61192 46.361 9.79554 46.1774 9.79554 45.9493C9.79554 45.722 9.61192 45.5375 9.38377 45.5375H3.60263C2.1993 45.5375 1.0579 44.3961 1.0579 42.9928V12.4926H52.9403V42.9928C52.9403 44.3961 51.7989 45.5375 50.3955 45.5375H30.0873V42.0952C30.0873 41.8679 29.9028 41.6834 29.6756 41.6834H28.9426V38.5243C33.5988 37.7305 37.4612 34.1588 38.4832 29.4482C38.5318 29.2259 38.391 29.0068 38.1695 28.9591C37.9454 28.9097 37.7272 29.0513 37.6794 29.2737C36.6451 34.0402 32.4788 37.5477 27.6406 37.8408C27.4289 37.8499 27.2181 37.8622 26.9991 37.8622C26.9299 37.8631 26.8566 37.8598 26.7833 37.8589C26.5017 37.8532 26.22 37.8425 25.9425 37.8161C25.8972 37.812 25.8544 37.8087 25.8041 37.8021C25.763 37.7972 25.7226 37.7881 25.6815 37.7832C25.6436 37.7766 25.604 37.7716 25.5653 37.7634C25.5612 37.7626 25.5579 37.7643 25.5538 37.7634C20.2149 37.0576 16.0774 32.4879 16.0774 26.9596C16.0774 20.928 20.9725 16.0206 26.9876 16.0206C33.0199 16.0206 37.9265 20.928 37.9265 26.9596C37.9265 27.1868 38.1101 27.3713 38.3382 27.3713C38.5655 27.3713 38.75 27.1868 38.75 26.9596C38.75 20.4734 33.4729 15.1971 26.9876 15.1971C20.5179 15.1971 15.2539 20.4734 15.2539 26.9596C15.2539 32.7753 19.5124 37.6028 25.072 38.5219V41.6834H24.3309C24.1027 41.6834 23.9191 41.8679 23.9191 42.0952V45.5375H13.5179C13.2906 45.5375 13.1061 45.722 13.1061 45.9493C13.1061 46.1774 13.2906 46.361 13.5179 46.361H23.9191V50.0011C23.9191 51.6992 25.301 53.0811 26.9991 53.0811C28.7013 53.0811 30.0873 51.6992 30.0873 50.0011V46.361H50.3955C52.2526 46.361 53.7638 44.8499 53.7638 42.9928V12.0973C53.7638 12.0915 53.7671 12.0866 53.7671 12.0808V4.28857C53.7671 2.89519 52.9172 1.69775 51.7083 1.18555C51.3047 1.0134 50.8608 0.918701 50.3955 0.918701H3.60263C1.74557 0.918701 0.234375 2.4299 0.234375 4.28696V42.9928C0.234375 44.8499 1.74557 46.361 3.60263 46.361ZM25.8955 38.6405C25.9499 38.6446 26.0092 38.6487 26.0767 38.652L26.5091 38.6776C26.5824 38.6816 26.6548 38.6776 26.7282 38.6792C26.8154 38.6816 26.9003 38.6923 26.9876 38.6923C27.0543 38.6923 27.1201 38.6849 27.186 38.6841C27.4463 38.6784 27.7098 38.6668 27.989 38.652C28.0326 38.6495 28.0762 38.6454 28.1191 38.6413V41.6834H25.8955V38.6405ZM29.2638 50.0011C29.2638 51.2454 28.2484 52.2575 26.9991 52.2575C25.7547 52.2575 24.7426 51.2454 24.7426 50.0011V45.9534C24.7426 45.9517 24.7434 45.9509 24.7434 45.9493C24.7434 45.9485 24.7426 45.9468 24.7426 45.9452V42.5069H25.4838H28.5308H29.2638V50.0011ZM1.06122 4.28857C1.06122 2.88529 2.20262 1.74389 3.6059 1.74389H50.3988C50.7497 1.74389 51.084 1.81552 51.3879 1.94399C52.2995 2.33188 52.9403 3.23613 52.9403 4.28696V11.6691H1.06122V4.28857Z" fill="#0176D3" stroke="#0176D3" stroke-width="0.4"/>
<path d="M27.0068 17.7449C21.933 17.7449 17.8047 21.8691 17.8047 26.938C17.8047 28.8181 18.3688 30.6241 19.4337 32.1616C21.1499 34.6528 23.9804 36.1401 27.0068 36.1401C27.7603 36.1401 28.5032 36.047 29.2188 35.8691C31.3666 35.3355 33.2796 34.0343 34.5717 32.1715C35.6374 30.6372 36.1999 28.8279 36.1999 26.938C36.1999 21.8691 32.0756 17.7449 27.0068 17.7449ZM33.4863 32.2201C33.3884 32.3403 33.2945 32.463 33.1907 32.5766C33.0688 32.7117 32.9362 32.8344 32.8061 32.9596C32.6966 33.065 32.5903 33.1745 32.4767 33.2734C32.3391 33.3919 32.1918 33.499 32.0476 33.6077C31.929 33.6975 31.8129 33.793 31.6902 33.8762C31.5379 33.9791 31.3781 34.0681 31.2192 34.1603C31.0931 34.2344 30.9713 34.3135 30.8403 34.381C30.6748 34.4667 30.501 34.5366 30.3289 34.6116C30.1988 34.6684 30.072 34.7318 29.9386 34.7821C29.7549 34.8513 29.5647 34.9023 29.3753 34.9591C29.2476 34.9962 29.1233 35.0431 28.9924 35.0752C28.7799 35.1272 28.5608 35.1601 28.3417 35.1955C28.2322 35.2136 28.1243 35.2408 28.0124 35.2548C27.6813 35.2951 27.3453 35.3165 27.0068 35.3165C26.6667 35.3165 26.3307 35.2951 25.998 35.254C25.8901 35.2416 25.7855 35.2144 25.6793 35.1971C25.4553 35.1617 25.2321 35.128 25.0139 35.0744C24.8887 35.044 24.7668 34.9978 24.6433 34.9616C24.4498 34.9048 24.2537 34.8513 24.066 34.7804C23.9383 34.7327 23.8156 34.6709 23.6905 34.6165C23.5126 34.54 23.3339 34.4667 23.1618 34.3777C23.0374 34.3135 22.9188 34.2369 22.7977 34.1652C22.6347 34.0705 22.4684 33.9783 22.3127 33.8721C22.1933 33.7914 22.0813 33.6991 21.9652 33.6118C21.8169 33.4998 21.6678 33.3903 21.5271 33.2684C21.4151 33.1713 21.3113 33.0642 21.2042 32.9604C21.0716 32.8328 20.9382 32.7076 20.8139 32.5709C20.7109 32.4573 20.617 32.3354 20.5207 32.216C20.4309 32.1048 20.3403 31.9936 20.2555 31.8775C21.0971 30.3523 22.666 29.402 24.4201 29.3657C26.1224 30.2988 27.8559 30.2996 29.5762 29.3657C31.3295 29.402 32.9025 30.354 33.7523 31.8824C33.6667 31.9986 33.5769 32.1097 33.4863 32.2201ZM34.2547 31.1338C33.2039 29.5214 31.4308 28.5414 29.4716 28.5414C29.4008 28.5414 29.3308 28.5595 29.2691 28.5941C27.7332 29.4613 26.2483 29.4604 24.7289 28.5949C24.6664 28.5595 24.5963 28.5414 24.5255 28.5414C22.5663 28.5414 20.7974 29.5189 19.7532 31.1272C19.0161 29.8582 18.6282 28.4236 18.6282 26.938C18.6282 22.3229 22.3868 18.5684 27.0068 18.5684C31.6219 18.5684 35.3764 22.3229 35.3764 26.938C35.3764 28.431 34.9901 29.8673 34.2547 31.1338Z" fill="#0176D3" stroke="#0176D3" stroke-width="0.4"/>
<path d="M26.9963 19.8193C24.8288 19.8193 23.0664 21.5858 23.0664 23.7566C23.0664 25.9233 24.8288 27.6865 26.9963 27.6865C29.1671 27.6865 30.9328 25.9233 30.9328 23.7566C30.9328 21.5858 29.1671 19.8193 26.9963 19.8193ZM26.9963 26.863C25.2834 26.863 23.8899 25.4696 23.8899 23.7566C23.8899 22.0404 25.2834 20.6429 26.9963 20.6429C28.7125 20.6429 30.1092 22.0404 30.1092 23.7566C30.1092 25.4696 28.7125 26.863 26.9963 26.863Z" fill="#0176D3" stroke="#0176D3" stroke-width="0.4"/>
<path d="M39.3819 4.0791C37.9909 4.0791 36.8594 5.21065 36.8594 6.60156C36.8594 7.99253 37.9909 9.12402 39.3819 9.12402C40.7728 9.12402 41.9043 7.99253 41.9043 6.60156C41.9043 5.21065 40.7728 4.0791 39.3819 4.0791ZM39.3819 8.30049C38.4447 8.30049 37.6829 7.53874 37.6829 6.60156C37.6829 5.66439 38.4447 4.90263 39.3819 4.90263C40.319 4.90263 41.0808 5.66439 41.0808 6.60156C41.0808 7.53874 40.319 8.30049 39.3819 8.30049Z" fill="#0176D3" stroke="#0176D3" stroke-width="0.4"/>
<path d="M31.0655 4.0791C29.6745 4.0791 28.543 5.21065 28.543 6.60156C28.543 7.99253 29.6745 9.12402 31.0655 9.12402C32.4564 9.12402 33.5879 7.99253 33.5879 6.60156C33.5879 5.21065 32.4564 4.0791 31.0655 4.0791ZM31.0655 8.30049C30.1283 8.30049 29.3665 7.53874 29.3665 6.60156C29.3665 5.66439 30.1283 4.90263 31.0655 4.90263C32.0026 4.90263 32.7644 5.66439 32.7644 6.60156C32.7644 7.53874 32.0026 8.30049 31.0655 8.30049Z" fill="#0176D3" stroke="#0176D3" stroke-width="0.4"/>
<path d="M47.6963 4.0791C46.3054 4.0791 45.1738 5.21065 45.1738 6.60156C45.1738 7.99253 46.3054 9.12402 47.6963 9.12402C49.0873 9.12402 50.2188 7.99253 50.2188 6.60156C50.2188 5.21065 49.0873 4.0791 47.6963 4.0791ZM47.6963 8.30049C46.7592 8.30049 45.9974 7.53874 45.9974 6.60156C45.9974 5.66439 46.7592 4.90263 47.6963 4.90263C48.6335 4.90263 49.3953 5.66439 49.3953 6.60156C49.3953 7.53874 48.6335 8.30049 47.6963 8.30049Z" fill="#0176D3" stroke="#0176D3" stroke-width="0.4"/>
</svg>
