<svg width="52" height="52" viewBox="0 0 52 52" fill="none" xmlns="http://www.w3.org/2000/svg">
<path d="M24.4254 9.1C24.0395 9.18125 23.2778 9.46562 22.7496 9.71953C21.9168 10.1156 21.6629 10.3086 20.8707 11.1109C19.4895 12.5023 18.8395 13.9141 18.7176 15.793C18.5551 18.2914 19.6824 20.6375 21.8254 22.2422L22.1606 22.5062L21.3176 22.8312C20.1903 23.2578 18.9918 23.9484 17.9965 24.7305L17.1942 25.3703L16.7981 24.8625C16.1684 24.0703 14.9699 23.1461 14.0559 22.7398L13.5988 22.5367L14.1168 21.968C15.8942 20.018 15.8637 17.2352 14.0457 15.3258C12.1871 13.3656 9.18088 13.3148 7.20041 15.1937C5.27072 17.0422 5.18947 20.0586 7.02775 21.9984L7.52541 22.5266L7.07853 22.7297C5.44338 23.4508 3.66603 25.3398 3.0465 26.9953C2.3051 28.9656 2.37619 29.9406 3.2801 30.6109C3.56447 30.8242 3.67619 30.8242 8.59181 30.8547C11.3543 30.8648 13.609 30.9055 13.609 30.9359C13.609 30.9664 13.5176 31.3422 13.416 31.7687C13.1215 32.9266 12.9793 34.2062 13.0199 35.3336C13.0504 36.4203 13.152 36.6742 13.7512 37.1109C14.0153 37.3141 14.1778 37.3242 17.6309 37.3547C19.6113 37.3648 21.2262 37.3953 21.2262 37.4055C21.2262 37.4156 21.0434 38.4719 20.8199 39.7617C20.5965 41.0414 20.4137 42.1992 20.4137 42.3312C20.4137 42.6461 20.8504 43.0625 21.1754 43.0625C21.3176 43.0625 22.4348 42.5344 23.6535 41.8945C24.8723 41.2547 25.9285 40.7266 25.9996 40.7266C26.0809 40.7266 27.1371 41.2547 28.3559 41.8945C29.5746 42.5344 30.6918 43.0625 30.834 43.0625C31.1387 43.0625 31.5856 42.6461 31.5856 42.3516C31.5856 42.1789 30.9762 38.5023 30.8137 37.6594L30.7629 37.3852L34.3684 37.3547C37.8215 37.3242 37.984 37.3141 38.2481 37.1109C38.8473 36.6742 38.9488 36.4203 38.9793 35.3336C39.0199 34.2062 38.8778 32.9266 38.5832 31.7687C38.4817 31.3422 38.3903 30.9664 38.3903 30.9359C38.3903 30.9055 40.6449 30.8648 43.4074 30.8547C48.3231 30.8242 48.4348 30.8242 48.7192 30.6109C48.8715 30.4992 49.1152 30.2453 49.2473 30.0523C49.4606 29.7477 49.4809 29.6258 49.4301 28.9453C49.3285 27.432 48.4246 25.5937 47.1652 24.3344C46.5457 23.7148 45.4692 22.9531 44.8293 22.6891L44.4637 22.5367L44.9715 21.9984C46.8098 20.0586 46.7285 17.0422 44.7988 15.1937C42.8184 13.3148 39.8121 13.3656 37.9535 15.3258C36.1254 17.2352 36.1051 20.0992 37.9028 21.9984L38.4004 22.5266L37.9434 22.7398C37.0293 23.1461 35.8309 24.0703 35.2012 24.8625L34.8051 25.3703L34.0028 24.7305C33.0074 23.9484 31.809 23.2578 30.6817 22.8312L29.8387 22.5062L30.1738 22.2422C32.3067 20.6477 33.4442 18.2812 33.2817 15.7828C33.1598 13.9242 32.4692 12.4414 31.0879 11.0602C30.3465 10.3187 30.0621 10.1156 29.2496 9.71953C27.6856 8.96797 26.0606 8.76484 24.4254 9.1ZM27.0762 10.6742C28.7418 10.9688 30.3262 12.1875 31.0778 13.7516C33.3223 18.393 28.7621 23.3797 23.9582 21.5414C20.1598 20.0891 19.1035 15.1125 21.9879 12.2484C23.3488 10.9078 25.1871 10.3289 27.0762 10.6742ZM11.8926 15.732C12.5934 16.0672 13.0301 16.4836 13.416 17.1844C13.7309 17.7734 13.7613 17.8953 13.7613 18.6875C13.7613 19.4797 13.7309 19.6016 13.416 20.1906C13.0301 20.9016 12.7051 21.2062 11.9434 21.6125C11.5067 21.8359 11.2934 21.8766 10.5621 21.8766C9.76994 21.8867 9.64807 21.8562 9.059 21.5414C8.35822 21.1656 7.95197 20.7289 7.5965 20.0078C7.2715 19.3375 7.28166 18.0172 7.61682 17.3164C8.04338 16.443 8.86603 15.7727 9.80041 15.5289C10.2981 15.3969 11.4051 15.5086 11.8926 15.732ZM42.9707 15.8539C43.6512 16.2195 43.966 16.5445 44.3621 17.3062C44.5856 17.743 44.6262 17.9562 44.6262 18.6875C44.6363 19.4797 44.6059 19.6016 44.291 20.1906C43.9051 20.9016 43.5801 21.2062 42.8184 21.6125C42.3817 21.8359 42.1684 21.8766 41.4371 21.8766C40.6449 21.8867 40.5231 21.8562 39.934 21.5414C39.2332 21.1656 38.827 20.7289 38.4715 20.0078C38.2988 19.6422 38.2481 19.368 38.2481 18.6875C38.2481 17.6719 38.4918 17.0625 39.152 16.4023C40.1676 15.3867 41.6809 15.1734 42.9707 15.8539ZM11.9332 23.7148C13.0707 23.9484 14.2285 24.5781 15.0817 25.4312C16.1379 26.4773 16.1379 26.4469 15.5285 27.2797C15.2442 27.6656 14.8481 28.2648 14.6551 28.6102L14.2996 29.25H9.23166H4.16369V29.0164C4.16369 28.6203 4.46838 27.7062 4.85432 26.9648C5.09807 26.4977 5.49416 25.9898 5.99182 25.482C7.56603 23.9078 9.73947 23.2578 11.9332 23.7148ZM27.7262 23.7148C30.5395 24.1414 33.0887 25.6141 34.8762 27.8484C36.4504 29.8086 37.3746 32.4492 37.3746 34.9578V35.75H34.8153H32.2559L33.3934 34.6023C34.6324 33.343 34.7238 33.1398 34.3074 32.6625C34.0942 32.4187 33.9012 32.3781 31.5856 32.043C30.2246 31.85 29.0668 31.6875 29.016 31.6875C28.9653 31.6875 28.4473 30.6922 27.8582 29.4734C27.2692 28.2648 26.6903 27.168 26.5785 27.0359C26.3145 26.7516 25.7051 26.7312 25.4613 26.9953C25.3699 27.0969 24.791 28.1836 24.1817 29.4227L23.0746 31.657L22.3332 31.7687C21.9168 31.8398 20.9926 31.9617 20.2613 32.043C17.9965 32.307 17.4684 32.5102 17.4684 33.1297C17.4684 33.3937 17.6512 33.6273 18.6059 34.6023L19.7434 35.75H17.184H14.6246V34.9578C14.6246 32.7844 15.3863 30.2859 16.5848 28.5492C19.0629 24.9336 23.3996 23.0547 27.7262 23.7148ZM43.4379 23.918C45.652 24.6187 47.4395 26.6398 47.7949 28.8336L47.866 29.25H42.7778H37.6996L37.3442 28.6102C37.1512 28.2648 36.7551 27.6656 36.4707 27.2797C35.8715 26.4469 35.8613 26.4875 36.9074 25.4414C38.6035 23.7555 41.102 23.1664 43.4379 23.918ZM26.8629 31.1391C27.2996 32.0633 27.7668 32.8961 27.8887 32.9977C28.0512 33.1195 28.6199 33.2414 29.7778 33.4039C30.6918 33.5359 31.5348 33.6578 31.6668 33.6883C31.8801 33.7391 31.7582 33.8914 30.4785 35.1914C29.6863 35.9836 29.0465 36.6945 29.0465 36.7758C29.0465 36.857 29.1887 37.7203 29.3512 38.6953C29.5137 39.6703 29.6559 40.5336 29.6559 40.6047C29.6559 40.6758 28.8738 40.3203 27.8278 39.7922L25.9996 38.8477L24.1715 39.7922C23.0543 40.3711 22.3434 40.6859 22.3434 40.6047C22.3434 40.5234 22.4754 39.6906 22.6481 38.7461C22.8106 37.7914 22.9528 36.9281 22.9528 36.8266C22.9528 36.7047 22.3738 36.0445 21.5207 35.1914C20.241 33.8914 20.1192 33.7391 20.3324 33.6883C20.4645 33.6578 21.3074 33.5359 22.2215 33.4039C23.3793 33.2414 23.9481 33.1195 24.1106 32.9977C24.2324 32.8961 24.6996 32.0633 25.1363 31.1391C25.5731 30.2148 25.9692 29.4531 25.9996 29.4531C26.0301 29.4531 26.4262 30.2148 26.8629 31.1391Z" fill="#0176D3"/>
</svg>
