<svg width="52" height="52" viewBox="0 0 52 52" fill="none" xmlns="http://www.w3.org/2000/svg">
<path d="M26.1422 8.78516C23.8164 9.29297 21.907 11.0195 21.1961 13.2539C20.9219 14.1172 20.8711 16.1688 21.1148 16.7375C21.3687 17.3367 22.0695 17.4688 22.4453 16.9914C22.6383 16.7375 22.6586 16.6359 22.5875 16.0469C22.3742 14.1578 22.8312 12.807 24.1109 11.5984C25.2992 10.4711 27.107 9.99375 28.7422 10.3695C30.5195 10.7758 32.0125 12.2992 32.4391 14.1172C32.6727 15.1023 32.632 15.082 34.6633 15.082C36.2883 15.082 36.4609 15.1023 37.0805 15.3461C38.0961 15.732 38.675 16.1078 39.4164 16.8492C40.168 17.6008 40.5437 18.2 40.9094 19.1852C42.1484 22.6078 40.0867 26.5789 36.593 27.4727C36.0547 27.6148 34.9781 27.625 28.3664 27.6047L20.7492 27.5742L19.8859 27.1477C18.2914 26.3555 17.1945 24.8422 16.9406 23.075C16.6562 21.0945 17.7531 18.8805 19.5203 17.8445C20.4141 17.3266 20.5969 16.8594 20.1297 16.3211C19.4594 15.5594 17.0422 17.3469 16.0672 19.3172C15.5391 20.3836 15.3359 21.2266 15.3359 22.4047C15.3359 25.6344 17.5703 28.4578 20.6375 29.0875C21.3078 29.2297 22.4453 29.25 28.5594 29.25C33.0586 29.25 35.943 29.2094 36.3594 29.1383C37.9031 28.8945 39.1117 28.2953 40.3102 27.168C41.9859 25.5938 42.8594 23.5625 42.8594 21.257C42.8492 19.0633 42.1078 17.3266 40.4727 15.6914C38.9492 14.168 37.4766 13.5484 35.1508 13.4367C33.9828 13.3758 33.8914 13.3555 33.8406 13.1625C33.8102 13.0508 33.5969 12.5836 33.3734 12.1367C32.1141 9.60781 28.9961 8.16563 26.1422 8.78516Z" fill="#0176D3"/>
<path d="M18.8395 32.2666C17.966 32.3885 16.859 32.815 11.791 34.9681C6.55039 37.1924 6.26602 37.3244 6.11367 37.6494L5.95117 37.9846L7.76914 41.6611C8.76445 43.6924 9.68867 45.4494 9.8207 45.5713C10.2879 46.008 10.1355 46.0791 13.9238 43.7025L16.534 42.0572L18.291 42.6158C21.0332 43.4791 23.6637 44.3525 25.3902 44.9619C26.8324 45.4799 27.0559 45.5306 28.0309 45.5814C29.5035 45.6424 30.3566 45.4189 32.459 44.3931C35.4754 42.9205 45.7027 37.233 46.0887 36.8064C46.3629 36.4916 46.3731 36.2681 46.0988 35.74C45.5504 34.6533 44.3621 33.9322 43.0215 33.851C42.016 33.79 41.0918 34.0439 38.9488 34.9377C37.1105 35.6994 32.2965 37.9642 32.073 38.1674C31.8699 38.34 31.8293 38.8072 31.9918 39.0916C32.0426 39.1931 32.2152 39.3353 32.3777 39.3963C32.7332 39.5486 32.8754 39.4978 35.7496 38.1369C40.2184 36.0244 41.9145 35.3947 43.0113 35.4658C43.6309 35.5064 44.159 35.7299 44.2504 36.0142C44.2605 36.065 43.5191 36.5322 42.5746 37.0603C34.5613 41.5697 31.0676 43.4181 29.859 43.7838C28.9449 44.0681 27.8176 44.0885 27.066 43.8447C26.7918 43.7635 25.7559 43.408 24.7809 43.0627C22.2926 42.1892 16.6762 40.4221 16.3816 40.4221C16.2496 40.4221 14.9598 41.1635 13.4668 42.0978C11.9941 43.0221 10.7449 43.7736 10.7043 43.7736C10.6129 43.7736 7.88086 38.3908 7.9418 38.34C8.05352 38.2486 17.0723 34.4502 17.773 34.1963C18.4434 33.9525 18.8598 33.8814 19.6621 33.8408C21.5207 33.7596 22.5059 34.0439 26.4059 35.7806C30.1637 37.4564 30.0418 37.3853 29.666 37.7205C29.4832 37.8931 29.3918 37.8931 28.1629 37.7408C26.4262 37.5174 22.9934 37.1721 22.577 37.1721C22.3738 37.1721 22.1605 37.2533 22.0387 37.3752C21.7746 37.6392 21.7645 38.2181 22.0285 38.4822C22.2621 38.7158 22.3027 38.7158 25.5426 39.051C26.8832 39.1931 28.3152 39.3556 28.7215 39.4166C29.2902 39.508 29.5543 39.508 29.8691 39.4166C30.7324 39.1627 31.6059 37.9947 31.6262 37.0908C31.6363 36.7353 31.5855 36.6033 31.3824 36.4408C31.0168 36.1463 29.7371 35.5166 26.9645 34.2775C24.3137 33.0994 22.8105 32.551 21.6324 32.3377C20.9113 32.2056 19.5098 32.1752 18.8395 32.2666Z" fill="#0176D3"/>
</svg>
