<svg width="52" height="52" viewBox="0 0 52 52" fill="none" xmlns="http://www.w3.org/2000/svg">
<path d="M25.1875 3.8188V6.05317L23.2781 6.17505C21.8562 6.2563 21.3281 6.45942 21.3281 6.9063C21.3281 7.35317 21.8562 7.5563 23.2375 7.63755L25.1469 7.75942L25.2687 9.87192C25.35 11.4969 25.5531 12.025 26.1219 12.1063C26.6906 12.2282 26.8125 11.9032 26.8125 9.9938V7.7188H28.8437C30.5906 7.7188 30.875 7.59692 30.875 6.9063C30.875 6.21567 30.5906 6.0938 28.8437 6.0938H26.8125V3.85942C26.8125 1.90942 26.7312 1.62505 26 1.62505C25.2687 1.62505 25.1875 1.90942 25.1875 3.8188Z" fill="#0176D3"/>
<path d="M12.1875 9.75V12.9594L9.2625 13.0813C6.62187 13.2031 6.29688 13.2844 6.29688 14.0156C6.29688 14.7469 6.62187 14.8281 9.2625 14.95L12.1875 15.0719V18.2812V21.5312H13.4062H14.625V18.2812V15.0312H17.6719C20.6375 15.0312 20.7187 14.9906 20.7187 14.0156C20.7187 13.0406 20.6375 13 17.6719 13H14.625V9.75V6.5H13.4062H12.1875V9.75Z" fill="#0176D3"/>
<path d="M37.375 9.75V13H34.5312C31.7687 13 31.6875 13.0406 31.6875 14.0156C31.6875 14.9906 31.7687 15.0312 34.5312 15.0312H37.375V18.2812V21.5312H38.5937H39.8125V18.2812V15.0312H42.8594C45.825 15.0312 45.9062 14.9906 45.9062 14.0156C45.9062 13.0406 45.825 13 42.8594 13H39.8125V9.75V6.5H38.5937H37.375V9.75Z" fill="#0176D3"/>
<path d="M24.7 20.8L24.5781 24.5781L21.2469 24.7L17.875 24.8219V26V27.2188H21.3281H24.7812V30.875V34.5312H26H27.2188V30.875V27.2188H30.6719H34.125V26V24.8219L30.7937 24.7L27.4219 24.5781L27.3 20.8L27.1781 17.0625H26H24.8219L24.7 20.8Z" fill="#0176D3"/>
<path d="M44.2812 22.75V25.1875H42.25C40.5031 25.1875 40.2188 25.3094 40.2188 26C40.2188 26.6906 40.5031 26.8125 42.25 26.8125H44.2812V29.0469C44.2812 31.1594 44.3219 31.2812 45.2969 31.2812C46.2719 31.2812 46.3125 31.1594 46.3125 29.0469V26.8125H48.3438C50.0906 26.8125 50.375 26.6906 50.375 26C50.375 25.3094 50.0906 25.1875 48.3438 25.1875H46.3125V22.75C46.3125 20.4344 46.2719 20.3125 45.2969 20.3125C44.3219 20.3125 44.2812 20.4344 44.2812 22.75Z" fill="#0176D3"/>
<path d="M5.6875 22.9531V25.1875H3.65625C1.95 25.1875 1.625 25.3094 1.625 25.9188C1.625 26.5281 1.95 26.65 3.575 26.65L5.48437 26.6094L5.60625 28.7219C5.6875 30.225 5.89062 30.875 6.29688 30.875C6.70312 30.875 6.90625 30.225 6.9875 28.7219L7.10938 26.6094L9.05937 26.4875C10.4 26.4062 10.9688 26.2031 10.9688 25.7563C10.9688 25.35 10.4406 25.1875 8.9375 25.1875H6.90625V22.9531C6.90625 21.2469 6.78437 20.7188 6.29688 20.7188C5.80937 20.7188 5.6875 21.2469 5.6875 22.9531Z" fill="#0176D3"/>
<path d="M12.1869 33.3125V36.5219L9.26188 36.6438C6.54 36.7656 6.29625 36.8469 6.17438 37.6594C6.0525 38.5531 6.17438 38.5938 9.09938 38.5938H12.1869V41.8438V45.0938H13.4056H14.6244V41.8438V38.5938H17.6713C20.6369 38.5938 20.7181 38.5531 20.7181 37.5781C20.7181 36.6031 20.6369 36.5625 17.6713 36.5625H14.6244V33.3125V30.0625H13.4056H12.1869V33.3125Z" fill="#0176D3"/>
<path d="M37.375 33.3125V36.5625H34.5312C31.7687 36.5625 31.6875 36.6031 31.6875 37.5781C31.6875 38.5531 31.7687 38.5938 34.5312 38.5938H37.375V41.8438V45.0938H38.5937H39.8125V41.8438V38.5938H42.8594C45.825 38.5938 45.9062 38.5531 45.9062 37.5781C45.9062 36.6031 45.825 36.5625 42.8594 36.5625H39.8125V33.3125V30.0625H38.5937H37.375V33.3125Z" fill="#0176D3"/>
<path d="M25.1875 41.6408V43.8752H23.1562C21.4094 43.8752 21.125 43.9971 21.125 44.6471C21.125 45.3377 21.45 45.4596 23.075 45.5815L24.9844 45.7033L25.1062 48.0596C25.2281 50.2533 25.3094 50.4158 26.1219 50.294C26.8937 50.1721 27.0156 49.8877 27.1375 47.8158L27.2594 45.5002H29.25C30.9969 45.5002 31.2812 45.3783 31.2812 44.6877C31.2812 43.9971 30.9969 43.8752 29.25 43.8752H27.2188V41.6408C27.2188 39.5283 27.1781 39.4065 26.2031 39.4065C25.2281 39.4065 25.1875 39.5283 25.1875 41.6408Z" fill="#0176D3"/>
</svg>
