<svg width="56" height="56" viewBox="0 0 56 56" fill="none" xmlns="http://www.w3.org/2000/svg">
<path d="M38.3775 22.0718C38.3779 20.2262 37.886 18.414 36.9527 16.8218C36.0194 15.2296 34.6783 13.9152 33.0678 13.0139C31.4573 12.1127 29.6355 11.6572 27.7904 11.6945C25.9452 11.7318 24.1433 12.2605 22.5705 13.2261C20.9977 14.1917 19.7109 15.5592 18.8427 17.1878C17.9744 18.8164 17.5562 20.647 17.6311 22.491C17.706 24.3351 18.2713 26.1258 19.2688 27.6786C20.2662 29.2313 21.6597 30.49 23.3057 31.3249C19.7478 32.2898 16.57 34.3194 14.1983 37.1415C11.8266 39.9637 10.3744 43.4434 10.0363 47.1143C8.10893 45.301 6.46327 43.21 5.15379 40.9105C2.70586 36.5931 1.53493 31.6691 1.77736 26.7119C2.0198 21.7547 3.66563 16.9685 6.52317 12.9105C9.44331 8.75297 13.5072 5.53218 18.2218 3.63887C22.9365 1.74556 28.0992 1.2611 33.0838 2.24427C34.3442 2.49069 35.5844 2.83144 36.7938 3.26364C38.966 4.04136 41.0256 5.10352 42.9188 6.42239C44.3595 7.42218 45.6975 8.56234 46.9132 9.82614C48.5114 11.4934 49.8864 13.3611 51.0038 15.3824C51.5709 16.4153 52.0678 17.4853 52.4913 18.5849C52.981 19.8532 53.3701 21.158 53.655 22.4874C54.047 24.2988 54.2465 26.1466 54.25 27.9999C54.2476 29.4658 54.1247 30.9291 53.8825 32.3749C53.7688 33.0486 53.6288 33.7136 53.445 34.3743C52.9503 36.3871 52.2158 38.3333 51.2575 40.1711L51.1744 40.3286C51.07 40.533 51.0501 40.7702 51.1189 40.9891C51.1878 41.208 51.3398 41.3911 51.5423 41.499C51.7449 41.6068 51.9817 41.6308 52.2017 41.5658C52.4218 41.5007 52.6075 41.3518 52.7188 41.1511L52.8063 40.9849C54.5431 37.6528 55.5929 34.0058 55.8934 30.2603C56.1939 26.5148 55.7389 22.7471 54.5556 19.1808C53.3723 15.6145 51.4846 12.3222 49.0047 9.49922C46.5247 6.6763 43.503 4.38027 40.1188 2.74739C39.375 2.39302 38.57 2.05614 37.7694 1.74989C36.8812 1.41089 35.9758 1.11882 35.0569 0.874894C30.6593 -0.266052 26.0508 -0.324597 21.6257 0.704269C18.0053 1.56188 14.5911 3.12958 11.5811 5.3165C8.57105 7.50343 6.02505 10.2661 4.09067 13.4443C1.40725 17.8245 -0.00876524 22.8631 4.08237e-05 27.9999C-0.00101637 32.3739 1.02269 36.6874 2.98911 40.5945C4.95553 44.5016 7.80995 47.8937 11.3236 50.4988C14.8372 53.1039 18.9123 54.8496 23.2222 55.596C27.5321 56.3424 31.9569 56.0687 36.1419 54.7968C36.3641 54.7289 36.5503 54.5755 36.6594 54.3704C36.7685 54.1653 36.7917 53.9252 36.7238 53.703C36.6559 53.4808 36.5025 53.2947 36.2974 53.1856C36.0923 53.0764 35.8522 53.0533 35.63 53.1211C31.5718 54.3519 27.2756 54.58 23.1098 53.786C18.944 52.992 15.033 51.1996 11.7119 48.5624C11.7412 45.9967 12.3755 43.4741 13.5634 41.1998C14.7512 38.9254 16.4591 36.9635 18.548 35.4736C20.6369 33.9836 23.048 33.0077 25.5852 32.6251C28.1224 32.2425 30.714 32.4641 33.1494 33.2718C33.9502 33.5374 34.7285 33.8666 35.4769 34.2561C35.6835 34.3623 35.9237 34.3821 36.1448 34.3111C36.3659 34.2401 36.5498 34.0842 36.656 33.8777C36.7621 33.6712 36.7819 33.4309 36.7109 33.2098C36.64 32.9887 36.4841 32.8048 36.2775 32.6986C35.1395 32.1135 33.9409 31.6543 32.7032 31.3293C34.4103 30.4591 35.8438 29.134 36.8451 27.5003C37.8465 25.8666 38.3768 23.9879 38.3775 22.0718ZM28 30.6993C26.2937 30.6993 24.6256 30.1933 23.2069 29.2453C21.7881 28.2973 20.6823 26.9498 20.0293 25.3734C19.3763 23.7969 19.2054 22.0622 19.5383 20.3886C19.8712 18.7151 20.6929 17.1778 21.8995 15.9712C23.1061 14.7646 24.6433 13.9429 26.3169 13.61C27.9905 13.2771 29.7252 13.448 31.3016 14.101C32.8781 14.754 34.2255 15.8598 35.1735 17.2786C36.1215 18.6974 36.6275 20.3654 36.6275 22.0718C36.6252 24.3592 35.7155 26.5523 34.098 28.1698C32.4806 29.7872 30.2875 30.697 28 30.6993Z" fill="#0176D3"/>
</svg>
